<svg xmlns="http://www.w3.org/2000/svg" style="display: none;">
  <defs>
    <symbol id="question">
      <path fill-rule="evenodd" clip-rule="evenodd" d="M12 3C7.02944 3 3 7.02944 3 12C3 16.9706 7.02944 21 12 21C16.9706 21 21 16.9706 21 12C21 7.02944 16.9706 3 12 3ZM1 12C1 5.92487 5.92487 1 12 1C18.0751 1 23 5.92487 23 12C23 18.0751 18.0751 23 12 23C5.92487 23 1 18.0751 1 12Z" fill="currentColor"/>
      <path fill-rule="evenodd" clip-rule="evenodd" d="M12.2582 8.02434C11.7927 7.94449 11.314 8.03197 10.9068 8.27129C10.4996 8.5106 10.1902 8.88631 10.0335 9.33187C9.85018 9.85286 9.27926 10.1266 8.75827 9.94336C8.23728 9.76008 7.96351 9.18917 8.14678 8.66818C8.46025 7.77707 9.07898 7.02565 9.89339 6.54702C10.7078 6.06839 11.6653 5.89343 12.5964 6.05313C13.5274 6.21283 14.3719 6.69688 14.9802 7.41955C15.5884 8.14207 15.9214 9.0565 15.9201 10.0009C15.9197 11.5313 14.7851 12.5419 13.9748 13.0821C13.5392 13.3725 13.1107 13.586 12.795 13.7263C12.6358 13.7971 12.5016 13.8508 12.405 13.8876C12.3566 13.9061 12.3174 13.9204 12.2888 13.9305L12.2541 13.9427L12.243 13.9465L12.2391 13.9478L12.2376 13.9483C12.2373 13.9484 12.2363 13.9487 11.9201 13L12.2363 13.9487C11.7124 14.1234 11.1461 13.8402 10.9714 13.3162C10.7969 12.7927 11.0796 12.2267 11.6028 12.0517L11.6016 12.0521C11.6017 12.0521 11.6018 12.0521 11.6028 12.0517L11.6188 12.0461C11.6342 12.0406 11.6594 12.0315 11.693 12.0187C11.7605 11.993 11.8607 11.9529 11.9827 11.8987C12.2296 11.789 12.551 11.6276 12.8654 11.418C13.555 10.9582 13.9201 10.4692 13.9201 10L13.9201 9.99853C13.9208 9.52621 13.7543 9.06889 13.4502 8.70755C13.146 8.34622 12.7238 8.10419 12.2582 8.02434Z" fill="currentColor"/>
      <path fill-rule="evenodd" clip-rule="evenodd" d="M12 15C12.5523 15 13 15.4477 13 16V16.5C13 17.0523 12.5523 17.5 12 17.5C11.4477 17.5 11 17.0523 11 16.5V16C11 15.4477 11.4477 15 12 15Z" fill="currentColor"/>
    </symbol>
    <symbol id="logo">
      <rect y="1" width="30" height="30" fill="currentColor"/>
      <rect x="38" width="32" height="32" rx="16" fill="currentColor"/>
      <path d="M78 0L110 32H78V0Z" fill="#currentColor"/>
    </symbol>
    <symbol id="cross">
      <path fill-rule="evenodd" clip-rule="evenodd" d="M12.4714 3.52861C12.7318 3.78896 12.7318 4.21107 12.4714 4.47141L4.47141 12.4714C4.21107 12.7318 3.78896 12.7318 3.52861 12.4714C3.26826 12.2111 3.26826 11.789 3.52861 11.5286L11.5286 3.52861C11.789 3.26826 12.2111 3.26826 12.4714 3.52861Z" fill="#495057"/>
      <path fill-rule="evenodd" clip-rule="evenodd" d="M3.52861 3.52861C3.78896 3.26826 4.21107 3.26826 4.47141 3.52861L12.4714 11.5286C12.7318 11.789 12.7318 12.2111 12.4714 12.4714C12.2111 12.7318 11.789 12.7318 11.5286 12.4714L3.52861 4.47141C3.26826 4.21107 3.26826 3.78896 3.52861 3.52861Z" fill="#495057"/>
    </symbol>
    <symbol id="arrow">
      <path d="M1 1L9 9L17 1" stroke="#495057" stroke-width="2" stroke-linecap="round" stroke-linejoin="round"/>
    </symbol>
    <symbol id="success">
      <path d="M22 11.08V12C21.9988 14.1564 21.3005 16.2547 20.0093 17.9818C18.7182 19.709 16.9033 20.9725 14.8354 21.5839C12.7674 22.1953 10.5573 22.1219 8.53447 21.3746C6.51168 20.6273 4.78465 19.2461 3.61096 17.4371C2.43727 15.628 1.87979 13.4881 2.02168 11.3363C2.16356 9.18455 2.99721 7.13631 4.39828 5.49706C5.79935 3.85781 7.69279 2.71537 9.79619 2.24013C11.8996 1.7649 14.1003 1.98232 16.07 2.85999" stroke="#374FC7" fill="currentColor" stroke-width="2" stroke-linecap="round" stroke-linejoin="round"/>
      <path d="M22 4L12 14.01L9 11.01" stroke="#374FC7" fill="currentColor" stroke-width="2" stroke-linecap="round" stroke-linejoin="round"/>
    </symbol>

    <symbol id="invalid">
      <path d="M10.29 3.86002L1.82002 18C1.64539 18.3024 1.55299 18.6453 1.55201 18.9945C1.55103 19.3438 1.64151 19.6872 1.81445 19.9905C1.98738 20.2939 2.23675 20.5468 2.53773 20.7239C2.83871 20.901 3.18082 20.9962 3.53002 21H20.47C20.8192 20.9962 21.1613 20.901 21.4623 20.7239C21.7633 20.5468 22.0127 20.2939 22.1856 19.9905C22.3585 19.6872 22.449 19.3438 22.448 18.9945C22.4471 18.6453 22.3547 18.3024 22.18 18L13.71 3.86002C13.5318 3.56613 13.2807 3.32314 12.9812 3.15451C12.6817 2.98587 12.3438 2.89728 12 2.89728C11.6563 2.89728 11.3184 2.98587 11.0188 3.15451C10.7193 3.32314 10.4683 3.56613 10.29 3.86002V3.86002Z" stroke="#F03D3E" fill="currentColor" stroke-width="2" stroke-linecap="round" stroke-linejoin="round"/>
      <path d="M12 9V13" stroke="#F03D3E" fill="currentColor" stroke-width="2" stroke-linecap="round" stroke-linejoin="round"/>
      <path d="M12 16V16.5" stroke="#F03D3E" fill="currentColor" stroke-width="2" stroke-linecap="round" stroke-linejoin="round"/>
    </symbol>

  </defs>
</svg>
